# xmcd
#
# Track frame offsets:
#	150
#	4117
#	25238
#	40071
#	61383
#	79651
#	96790
#	112758
#	123485
#	148635
#	170245
# Disc length: 2718 seconds
# Revision: 1
# Processed by: cddbd v1.5.1PL2 Copyright (c) Steve Scherf et al.
#
# Submitted via: libkcddb 0.21
#
DISCID=890a9c0b
DTITLE=Uncle Tupelo - The Vic Theatre Chicago IL [CD2]
DYEAR=1993
DGENRE=Revival
TTITLE0=Banter
TTITLE1=Steal the Crumbs
TTITLE2=Weve Been Had
TTITLE3=Give Back The Key to My Hard
TTITLE4=Looking for a Way Out
TTITLE5=E: Life Worth Living
TTITLE6=Nothing
TTITLE7=Truck Drivin Man
TTITLE8=Willin
TTITLE9=E2: Life Worth Living
TTITLE10=Suzie Q
EXTD=
EXTT0=
EXTT1=
EXTT2=
EXTT3=
EXTT4=
EXTT5=
EXTT6=
EXTT7=
EXTT8=
EXTT9=
EXTT10=
PLAYORDER=
